<?xml version="1.0" encoding="UTF-8" standalone="no"?>
<!DOCTYPE svg PUBLIC "-//W3C//DTD SVG 1.1//EN"
 "http://www.w3.org/Graphics/SVG/1.1/DTD/svg11.dtd">
<!-- Generated by graphviz version 2.40.1 (20161225.0304)
 -->
<!-- Title: models_diagram Pages: 1 -->
<svg width="2459pt" height="765pt"
 viewBox="0.00 0.00 2458.94 764.54" xmlns="http://www.w3.org/2000/svg" xmlns:xlink="http://www.w3.org/1999/xlink">
<g id="graph0" class="graph" transform="scale(1 1) rotate(0) translate(36 728.538)">
<title>models_diagram</title>
<polygon fill="#ffffff" stroke="transparent" points="-36,36 -36,-728.538 2422.9442,-728.538 2422.9442,36 -36,36"/>
<!-- User -->
<g id="node1" class="node">
<title>User</title>
<polygon fill="#add8e6" stroke="transparent" points="1376.4442,-439.769 1376.4442,-461.769 1484.4442,-461.769 1484.4442,-439.769 1376.4442,-439.769"/>
<polygon fill="none" stroke="#000000" points="1376.4442,-439.769 1376.4442,-461.769 1484.4442,-461.769 1484.4442,-439.769 1376.4442,-439.769"/>
<text text-anchor="start" x="1421.0062" y="-448.769" font-family="Times,serif" font-weight="bold" font-size="10.00" fill="#000000">User</text>
<polygon fill="none" stroke="#000000" points="1376.4442,-417.769 1376.4442,-439.769 1484.4442,-439.769 1484.4442,-417.769 1376.4442,-417.769"/>
<text text-anchor="start" x="1381.4442" y="-426.769" font-family="Times,serif" text-decoration="underline" font-size="10.00" fill="#000000">id</text>
<text text-anchor="start" x="1389.2232" y="-426.769" font-family="Times,serif" font-size="10.00" fill="#000000">: NUMBER</text>
<polygon fill="none" stroke="#000000" points="1376.4442,-395.769 1376.4442,-417.769 1484.4442,-417.769 1484.4442,-395.769 1376.4442,-395.769"/>
<text text-anchor="start" x="1381.4442" y="-403.769" font-family="Times,serif" font-size="10.00" fill="#000000">firstName: STRING</text>
<polygon fill="none" stroke="#000000" points="1376.4442,-373.769 1376.4442,-395.769 1484.4442,-395.769 1484.4442,-373.769 1376.4442,-373.769"/>
<text text-anchor="start" x="1381.4442" y="-381.769" font-family="Times,serif" font-size="10.00" fill="#000000">lastName: STRING</text>
<polygon fill="none" stroke="#000000" points="1376.4442,-351.769 1376.4442,-373.769 1484.4442,-373.769 1484.4442,-351.769 1376.4442,-351.769"/>
<text text-anchor="start" x="1381.4442" y="-359.769" font-family="Times,serif" font-size="10.00" fill="#000000">password: STRING</text>
<polygon fill="none" stroke="#000000" points="1376.4442,-329.769 1376.4442,-351.769 1484.4442,-351.769 1484.4442,-329.769 1376.4442,-329.769"/>
<text text-anchor="start" x="1381.4442" y="-337.769" font-family="Times,serif" font-size="10.00" fill="#000000">email: STRING</text>
<polygon fill="none" stroke="#000000" points="1376.4442,-307.769 1376.4442,-329.769 1484.4442,-329.769 1484.4442,-307.769 1376.4442,-307.769"/>
<text text-anchor="start" x="1381.1502" y="-315.769" font-family="Times,serif" font-size="10.00" fill="#000000">phoneNumber: STRING</text>
<polygon fill="none" stroke="#000000" points="1376.4442,-285.769 1376.4442,-307.769 1484.4442,-307.769 1484.4442,-285.769 1376.4442,-285.769"/>
<text text-anchor="start" x="1381.4442" y="-293.769" font-family="Times,serif" font-size="10.00" fill="#000000">Gender: ENUM</text>
<polygon fill="none" stroke="#000000" points="1376.4442,-263.769 1376.4442,-285.769 1484.4442,-285.769 1484.4442,-263.769 1376.4442,-263.769"/>
<text text-anchor="start" x="1381.4442" y="-271.769" font-family="Times,serif" font-size="10.00" fill="#000000">createdAt: DATE</text>
<polygon fill="none" stroke="#000000" points="1376.4442,-241.769 1376.4442,-263.769 1484.4442,-263.769 1484.4442,-241.769 1376.4442,-241.769"/>
<text text-anchor="start" x="1381.4442" y="-249.769" font-family="Times,serif" font-size="10.00" fill="#000000">updatedAt: DATE</text>
</g>
<!-- UserRole -->
<g id="node3" class="node">
<title>UserRole</title>
<polygon fill="#add8e6" stroke="transparent" points="2111.4442,-395.769 2111.4442,-417.769 2194.4442,-417.769 2194.4442,-395.769 2111.4442,-395.769"/>
<polygon fill="none" stroke="#000000" points="2111.4442,-395.769 2111.4442,-417.769 2194.4442,-417.769 2194.4442,-395.769 2111.4442,-395.769"/>
<text text-anchor="start" x="2134.0627" y="-404.769" font-family="Times,serif" font-weight="bold" font-size="10.00" fill="#000000">UserRole</text>
<polygon fill="none" stroke="#000000" points="2111.4442,-373.769 2111.4442,-395.769 2194.4442,-395.769 2194.4442,-373.769 2111.4442,-373.769"/>
<text text-anchor="start" x="2116.4442" y="-382.769" font-family="Times,serif" text-decoration="underline" font-size="10.00" fill="#000000">id</text>
<text text-anchor="start" x="2124.2232" y="-382.769" font-family="Times,serif" font-size="10.00" fill="#000000">: NUMBER</text>
<polygon fill="none" stroke="#000000" points="2111.4442,-351.769 2111.4442,-373.769 2194.4442,-373.769 2194.4442,-351.769 2111.4442,-351.769"/>
<text text-anchor="start" x="2116.4247" y="-360.769" font-family="Times,serif" font-style="italic" text-decoration="underline" font-size="10.00" fill="#000000">userId</text>
<text text-anchor="start" x="2141.4107" y="-360.769" font-family="Times,serif" font-size="10.00" fill="#000000">: NUMBER</text>
<polygon fill="none" stroke="#000000" points="2111.4442,-329.769 2111.4442,-351.769 2194.4442,-351.769 2194.4442,-329.769 2111.4442,-329.769"/>
<text text-anchor="start" x="2116.4442" y="-338.769" font-family="Times,serif" font-style="italic" text-decoration="underline" font-size="10.00" fill="#000000">roleId</text>
<text text-anchor="start" x="2140.3202" y="-338.769" font-family="Times,serif" font-size="10.00" fill="#000000">: NUMBER</text>
<polygon fill="none" stroke="#000000" points="2111.4442,-307.769 2111.4442,-329.769 2194.4442,-329.769 2194.4442,-307.769 2111.4442,-307.769"/>
<text text-anchor="start" x="2116.4442" y="-315.769" font-family="Times,serif" font-size="10.00" fill="#000000">createdAt: DATE</text>
<polygon fill="none" stroke="#000000" points="2111.4442,-285.769 2111.4442,-307.769 2194.4442,-307.769 2194.4442,-285.769 2111.4442,-285.769"/>
<text text-anchor="start" x="2116.1492" y="-293.769" font-family="Times,serif" font-size="10.00" fill="#000000">updatedAt: DATE</text>
</g>
<!-- User&#45;&gt;UserRole -->
<g id="edge1" class="edge">
<title>User&#45;&gt;UserRole</title>
<path fill="none" stroke="#000000" stroke-width=".75" d="M1484.7115,-351.769C1620.808,-351.769 1974.9612,-351.769 2104.2748,-351.769"/>
<polygon fill="#000000" stroke="#000000" stroke-width=".75" points="2104.6296,-351.7691 2110.6296,-354.469 2107.6296,-351.769 2110.6296,-351.769 2110.6296,-351.769 2110.6296,-351.769 2107.6296,-351.769 2110.6295,-349.069 2104.6296,-351.7691 2104.6296,-351.7691"/>
</g>
<!-- Role -->
<g id="node2" class="node">
<title>Role</title>
<polygon fill="#add8e6" stroke="transparent" points="2304.4442,-384.769 2304.4442,-406.769 2387.4442,-406.769 2387.4442,-384.769 2304.4442,-384.769"/>
<polygon fill="none" stroke="#000000" points="2304.4442,-384.769 2304.4442,-406.769 2387.4442,-406.769 2387.4442,-384.769 2304.4442,-384.769"/>
<text text-anchor="start" x="2336.5007" y="-393.769" font-family="Times,serif" font-weight="bold" font-size="10.00" fill="#000000">Role</text>
<polygon fill="none" stroke="#000000" points="2304.4442,-362.769 2304.4442,-384.769 2387.4442,-384.769 2387.4442,-362.769 2304.4442,-362.769"/>
<text text-anchor="start" x="2309.4442" y="-371.769" font-family="Times,serif" text-decoration="underline" font-size="10.00" fill="#000000">id</text>
<text text-anchor="start" x="2317.2232" y="-371.769" font-family="Times,serif" font-size="10.00" fill="#000000">: NUMBER</text>
<polygon fill="none" stroke="#000000" points="2304.4442,-340.769 2304.4442,-362.769 2387.4442,-362.769 2387.4442,-340.769 2304.4442,-340.769"/>
<text text-anchor="start" x="2309.4442" y="-348.769" font-family="Times,serif" font-size="10.00" fill="#000000">name: ENUM</text>
<polygon fill="none" stroke="#000000" points="2304.4442,-318.769 2304.4442,-340.769 2387.4442,-340.769 2387.4442,-318.769 2304.4442,-318.769"/>
<text text-anchor="start" x="2309.4442" y="-326.769" font-family="Times,serif" font-size="10.00" fill="#000000">createdAt: DATE</text>
<polygon fill="none" stroke="#000000" points="2304.4442,-296.769 2304.4442,-318.769 2387.4442,-318.769 2387.4442,-296.769 2304.4442,-296.769"/>
<text text-anchor="start" x="2309.1492" y="-304.769" font-family="Times,serif" font-size="10.00" fill="#000000">updatedAt: DATE</text>
</g>
<!-- Role&#45;&gt;UserRole -->
<g id="edge2" class="edge">
<title>Role&#45;&gt;UserRole</title>
<path fill="none" stroke="#000000" stroke-width=".75" d="M2303.5661,-351.769C2273.2168,-351.769 2232.1199,-351.769 2200.4441,-351.769"/>
<polygon fill="#000000" stroke="#000000" stroke-width=".75" points="2200.2406,-351.7691 2194.2406,-349.069 2197.2406,-351.769 2194.2406,-351.769 2194.2406,-351.769 2194.2406,-351.769 2197.2406,-351.769 2194.2405,-354.469 2200.2406,-351.7691 2200.2406,-351.7691"/>
</g>
<!-- Category -->
<g id="node4" class="node">
<title>Category</title>
<polygon fill="#add8e6" stroke="transparent" points="654.5236,-670.538 654.5236,-692.538 737.5236,-692.538 737.5236,-670.538 654.5236,-670.538"/>
<polygon fill="none" stroke="#000000" points="654.5236,-670.538 654.5236,-692.538 737.5236,-692.538 737.5236,-670.538 654.5236,-670.538"/>
<text text-anchor="start" x="677.6961" y="-679.538" font-family="Times,serif" font-weight="bold" font-size="10.00" fill="#000000">Category</text>
<polygon fill="none" stroke="#000000" points="654.5236,-648.538 654.5236,-670.538 737.5236,-670.538 737.5236,-648.538 654.5236,-648.538"/>
<text text-anchor="start" x="659.5236" y="-657.538" font-family="Times,serif" text-decoration="underline" font-size="10.00" fill="#000000">id</text>
<text text-anchor="start" x="667.3026" y="-657.538" font-family="Times,serif" font-size="10.00" fill="#000000">: NUMBER</text>
<polygon fill="none" stroke="#000000" points="654.5236,-626.538 654.5236,-648.538 737.5236,-648.538 737.5236,-626.538 654.5236,-626.538"/>
<text text-anchor="start" x="659.5236" y="-634.538" font-family="Times,serif" font-size="10.00" fill="#000000">name: STRING</text>
<polygon fill="none" stroke="#000000" points="654.5236,-604.538 654.5236,-626.538 737.5236,-626.538 737.5236,-604.538 654.5236,-604.538"/>
<text text-anchor="start" x="659.5236" y="-612.538" font-family="Times,serif" font-size="10.00" fill="#000000">createdAt: DATE</text>
<polygon fill="none" stroke="#000000" points="654.5236,-582.538 654.5236,-604.538 737.5236,-604.538 737.5236,-582.538 654.5236,-582.538"/>
<text text-anchor="start" x="659.2286" y="-590.538" font-family="Times,serif" font-size="10.00" fill="#000000">updatedAt: DATE</text>
</g>
<!-- Event -->
<g id="node5" class="node">
<title>Event</title>
<polygon fill="#add8e6" stroke="transparent" points="443.4442,-450.769 443.4442,-472.769 543.4442,-472.769 543.4442,-450.769 443.4442,-450.769"/>
<polygon fill="none" stroke="#000000" points="443.4442,-450.769 443.4442,-472.769 543.4442,-472.769 543.4442,-450.769 443.4442,-450.769"/>
<text text-anchor="start" x="481.7807" y="-459.769" font-family="Times,serif" font-weight="bold" font-size="10.00" fill="#000000">Event</text>
<polygon fill="none" stroke="#000000" points="443.4442,-428.769 443.4442,-450.769 543.4442,-450.769 543.4442,-428.769 443.4442,-428.769"/>
<text text-anchor="start" x="448.4442" y="-437.769" font-family="Times,serif" text-decoration="underline" font-size="10.00" fill="#000000">id</text>
<text text-anchor="start" x="456.2232" y="-437.769" font-family="Times,serif" font-size="10.00" fill="#000000">: NUMBER</text>
<polygon fill="none" stroke="#000000" points="443.4442,-406.769 443.4442,-428.769 543.4442,-428.769 543.4442,-406.769 443.4442,-406.769"/>
<text text-anchor="start" x="448.4442" y="-414.769" font-family="Times,serif" font-size="10.00" fill="#000000">name: STRING</text>
<polygon fill="none" stroke="#000000" points="443.4442,-384.769 443.4442,-406.769 543.4442,-406.769 543.4442,-384.769 443.4442,-384.769"/>
<text text-anchor="start" x="448.4442" y="-392.769" font-family="Times,serif" font-size="10.00" fill="#000000">description: STRING</text>
<polygon fill="none" stroke="#000000" points="443.4442,-362.769 443.4442,-384.769 543.4442,-384.769 543.4442,-362.769 443.4442,-362.769"/>
<text text-anchor="start" x="448.0407" y="-371.769" font-family="Times,serif" font-style="italic" text-decoration="underline" font-size="10.00" fill="#000000">categoryId</text>
<text text-anchor="start" x="490.7947" y="-371.769" font-family="Times,serif" font-size="10.00" fill="#000000">: NUMBER</text>
<polygon fill="none" stroke="#000000" points="443.4442,-340.769 443.4442,-362.769 543.4442,-362.769 543.4442,-340.769 443.4442,-340.769"/>
<text text-anchor="start" x="448.4442" y="-348.769" font-family="Times,serif" font-size="10.00" fill="#000000">date: DATE</text>
<polygon fill="none" stroke="#000000" points="443.4442,-318.769 443.4442,-340.769 543.4442,-340.769 543.4442,-318.769 443.4442,-318.769"/>
<text text-anchor="start" x="448.4442" y="-326.769" font-family="Times,serif" font-size="10.00" fill="#000000">venue: STRING</text>
<polygon fill="none" stroke="#000000" points="443.4442,-296.769 443.4442,-318.769 543.4442,-318.769 543.4442,-296.769 443.4442,-296.769"/>
<text text-anchor="start" x="448.4442" y="-304.769" font-family="Times,serif" font-size="10.00" fill="#000000">status: ENUM</text>
<polygon fill="none" stroke="#000000" points="443.4442,-274.769 443.4442,-296.769 543.4442,-296.769 543.4442,-274.769 443.4442,-274.769"/>
<text text-anchor="start" x="448.4442" y="-282.769" font-family="Times,serif" font-size="10.00" fill="#000000">Price: NUMBER</text>
<polygon fill="none" stroke="#000000" points="443.4442,-252.769 443.4442,-274.769 543.4442,-274.769 543.4442,-252.769 443.4442,-252.769"/>
<text text-anchor="start" x="448.4442" y="-260.769" font-family="Times,serif" font-size="10.00" fill="#000000">createdAt: DATE</text>
<polygon fill="none" stroke="#000000" points="443.4442,-230.769 443.4442,-252.769 543.4442,-252.769 543.4442,-230.769 443.4442,-230.769"/>
<text text-anchor="start" x="448.4442" y="-238.769" font-family="Times,serif" font-size="10.00" fill="#000000">updatedAt: DATE</text>
</g>
<!-- Event&#45;&gt;Category -->
<g id="edge5" class="edge">
<title>Event&#45;&gt;Category</title>
<path fill="none" stroke="#000000" stroke-width=".75" d="M547.161,-427.7321C581.5116,-476.3088 625.2888,-538.2159 656.3651,-582.1623"/>
<polygon fill="#000000" stroke="#000000" stroke-width=".75" points="547.1203,-427.6746 545.8606,-421.2168 545.3882,-425.2251 543.656,-422.7757 543.656,-422.7757 543.656,-422.7757 545.3882,-425.2251 541.4515,-424.3346 547.1203,-427.6746 547.1203,-427.6746"/>
</g>
<!-- EventTag -->
<g id="node7" class="node">
<title>EventTag</title>
<polygon fill="#add8e6" stroke="transparent" points="190.4762,-399.8388 190.4762,-421.8388 278.4762,-421.8388 278.4762,-399.8388 190.4762,-399.8388"/>
<polygon fill="none" stroke="#000000" points="190.4762,-399.8388 190.4762,-421.8388 278.4762,-421.8388 278.4762,-399.8388 190.4762,-399.8388"/>
<text text-anchor="start" x="215.0387" y="-408.8388" font-family="Times,serif" font-weight="bold" font-size="10.00" fill="#000000">EventTag</text>
<polygon fill="none" stroke="#000000" points="190.4762,-377.8388 190.4762,-399.8388 278.4762,-399.8388 278.4762,-377.8388 190.4762,-377.8388"/>
<text text-anchor="start" x="195.4762" y="-386.8388" font-family="Times,serif" text-decoration="underline" font-size="10.00" fill="#000000">id</text>
<text text-anchor="start" x="203.2552" y="-386.8388" font-family="Times,serif" font-size="10.00" fill="#000000">: NUMBER</text>
<polygon fill="none" stroke="#000000" points="190.4762,-355.8388 190.4762,-377.8388 278.4762,-377.8388 278.4762,-355.8388 190.4762,-355.8388"/>
<text text-anchor="start" x="195.4567" y="-364.8388" font-family="Times,serif" font-style="italic" text-decoration="underline" font-size="10.00" fill="#000000">eventId</text>
<text text-anchor="start" x="225.4427" y="-364.8388" font-family="Times,serif" font-size="10.00" fill="#000000">: NUMBER</text>
<polygon fill="none" stroke="#000000" points="190.4762,-333.8388 190.4762,-355.8388 278.4762,-355.8388 278.4762,-333.8388 190.4762,-333.8388"/>
<text text-anchor="start" x="195.4762" y="-342.8388" font-family="Times,serif" font-style="italic" text-decoration="underline" font-size="10.00" fill="#000000">tagId</text>
<text text-anchor="start" x="216.0232" y="-342.8388" font-family="Times,serif" font-size="10.00" fill="#000000">: NUMBER</text>
<polygon fill="none" stroke="#000000" points="190.4762,-311.8388 190.4762,-333.8388 278.4762,-333.8388 278.4762,-311.8388 190.4762,-311.8388"/>
<text text-anchor="start" x="195.4762" y="-319.8388" font-family="Times,serif" font-size="10.00" fill="#000000">createdAt: DATE</text>
<polygon fill="none" stroke="#000000" points="190.4762,-289.8388 190.4762,-311.8388 278.4762,-311.8388 278.4762,-289.8388 190.4762,-289.8388"/>
<text text-anchor="start" x="195.4762" y="-297.8388" font-family="Times,serif" font-size="10.00" fill="#000000">updatedAt: DATE</text>
</g>
<!-- Event&#45;&gt;EventTag -->
<g id="edge3" class="edge">
<title>Event&#45;&gt;EventTag</title>
<path fill="none" stroke="#000000" stroke-width=".75" d="M443.2055,-352.5585C397.4558,-353.2775 330.2606,-354.3335 284.5596,-355.0517"/>
<polygon fill="#000000" stroke="#000000" stroke-width=".75" points="284.537,-355.052 278.4953,-352.4467 281.5374,-355.0992 278.5378,-355.1464 278.5378,-355.1464 278.5378,-355.1464 281.5374,-355.0992 278.5802,-357.846 284.537,-355.052 284.537,-355.052"/>
</g>
<!-- EventImage -->
<g id="node6" class="node">
<title>EventImage</title>
<polygon fill="#add8e6" stroke="transparent" points="651.5236,-110 651.5236,-132 740.5236,-132 740.5236,-110 651.5236,-110"/>
<polygon fill="none" stroke="#000000" points="651.5236,-110 651.5236,-132 740.5236,-132 740.5236,-110 651.5236,-110"/>
<text text-anchor="start" x="671.8671" y="-119" font-family="Times,serif" font-weight="bold" font-size="10.00" fill="#000000">EventImage</text>
<polygon fill="none" stroke="#000000" points="651.5236,-88 651.5236,-110 740.5236,-110 740.5236,-88 651.5236,-88"/>
<text text-anchor="start" x="656.5236" y="-97" font-family="Times,serif" text-decoration="underline" font-size="10.00" fill="#000000">id</text>
<text text-anchor="start" x="664.3026" y="-97" font-family="Times,serif" font-size="10.00" fill="#000000">: NUMBER</text>
<polygon fill="none" stroke="#000000" points="651.5236,-66 651.5236,-88 740.5236,-88 740.5236,-66 651.5236,-66"/>
<text text-anchor="start" x="656.5236" y="-75" font-family="Times,serif" font-style="italic" text-decoration="underline" font-size="10.00" fill="#000000">eventId</text>
<text text-anchor="start" x="686.5096" y="-75" font-family="Times,serif" font-size="10.00" fill="#000000">: NUMBER</text>
<polygon fill="none" stroke="#000000" points="651.5236,-44 651.5236,-66 740.5236,-66 740.5236,-44 651.5236,-44"/>
<text text-anchor="start" x="656.4506" y="-52" font-family="Times,serif" font-size="10.00" fill="#000000">imageUrl: STRING</text>
<polygon fill="none" stroke="#000000" points="651.5236,-22 651.5236,-44 740.5236,-44 740.5236,-22 651.5236,-22"/>
<text text-anchor="start" x="656.5236" y="-30" font-family="Times,serif" font-size="10.00" fill="#000000">createdAt: DATE</text>
<polygon fill="none" stroke="#000000" points="651.5236,0 651.5236,-22 740.5236,-22 740.5236,0 651.5236,0"/>
<text text-anchor="start" x="656.5236" y="-8" font-family="Times,serif" font-size="10.00" fill="#000000">updatedAt: DATE</text>
</g>
<!-- EventImage&#45;&gt;Event -->
<g id="edge6" class="edge">
<title>EventImage&#45;&gt;Event</title>
<path fill="none" stroke="#000000" stroke-width=".75" d="M647.3496,-134.1249C616.042,-178.3982 575.3077,-236.0023 543.6109,-280.8262"/>
<polygon fill="#000000" stroke="#000000" stroke-width=".75" points="647.462,-133.9659 653.1308,-130.6259 649.1941,-131.5164 650.9262,-129.067 650.9262,-129.067 650.9262,-129.067 649.1941,-131.5164 648.7217,-127.5081 647.462,-133.9659 647.462,-133.9659"/>
</g>
<!-- Tag -->
<g id="node8" class="node">
<title>Tag</title>
<polygon fill="#add8e6" stroke="transparent" points=".5,-391.8716 .5,-413.8716 83.5,-413.8716 83.5,-391.8716 .5,-391.8716"/>
<polygon fill="none" stroke="#000000" points=".5,-391.8716 .5,-413.8716 83.5,-413.8716 83.5,-391.8716 .5,-391.8716"/>
<text text-anchor="start" x="34.226" y="-400.8716" font-family="Times,serif" font-weight="bold" font-size="10.00" fill="#000000">Tag</text>
<polygon fill="none" stroke="#000000" points=".5,-369.8716 .5,-391.8716 83.5,-391.8716 83.5,-369.8716 .5,-369.8716"/>
<text text-anchor="start" x="5.5" y="-378.8716" font-family="Times,serif" text-decoration="underline" font-size="10.00" fill="#000000">id</text>
<text text-anchor="start" x="13.279" y="-378.8716" font-family="Times,serif" font-size="10.00" fill="#000000">: NUMBER</text>
<polygon fill="none" stroke="#000000" points=".5,-347.8716 .5,-369.8716 83.5,-369.8716 83.5,-347.8716 .5,-347.8716"/>
<text text-anchor="start" x="5.5" y="-355.8716" font-family="Times,serif" font-size="10.00" fill="#000000">name: STRING</text>
<polygon fill="none" stroke="#000000" points=".5,-325.8716 .5,-347.8716 83.5,-347.8716 83.5,-325.8716 .5,-325.8716"/>
<text text-anchor="start" x="5.5" y="-333.8716" font-family="Times,serif" font-size="10.00" fill="#000000">createdAt: DATE</text>
<polygon fill="none" stroke="#000000" points=".5,-303.8716 .5,-325.8716 83.5,-325.8716 83.5,-303.8716 .5,-303.8716"/>
<text text-anchor="start" x="5.205" y="-311.8716" font-family="Times,serif" font-size="10.00" fill="#000000">updatedAt: DATE</text>
</g>
<!-- Tag&#45;&gt;EventTag -->
<g id="edge4" class="edge">
<title>Tag&#45;&gt;EventTag</title>
<path fill="none" stroke="#000000" stroke-width=".75" d="M83.373,-358.2135C112.991,-357.748 152.8463,-357.1217 184.1884,-356.6291"/>
<polygon fill="#000000" stroke="#000000" stroke-width=".75" points="184.3385,-356.6269 190.3802,-359.2321 187.3381,-356.5797 190.3378,-356.5325 190.3378,-356.5325 190.3378,-356.5325 187.3381,-356.5797 190.2953,-353.8328 184.3385,-356.6269 184.3385,-356.6269"/>
</g>
<!-- Booking -->
<g id="node9" class="node">
<title>Booking</title>
<polygon fill="#add8e6" stroke="transparent" points="1114.4442,-417.769 1114.4442,-439.769 1207.4442,-439.769 1207.4442,-417.769 1114.4442,-417.769"/>
<polygon fill="none" stroke="#000000" points="1114.4442,-417.769 1114.4442,-439.769 1207.4442,-439.769 1207.4442,-417.769 1114.4442,-417.769"/>
<text text-anchor="start" x="1143.7202" y="-426.769" font-family="Times,serif" font-weight="bold" font-size="10.00" fill="#000000">Booking</text>
<polygon fill="none" stroke="#000000" points="1114.4442,-395.769 1114.4442,-417.769 1207.4442,-417.769 1207.4442,-395.769 1114.4442,-395.769"/>
<text text-anchor="start" x="1119.4442" y="-404.769" font-family="Times,serif" text-decoration="underline" font-size="10.00" fill="#000000">id</text>
<text text-anchor="start" x="1127.2232" y="-404.769" font-family="Times,serif" font-size="10.00" fill="#000000">: NUMBER</text>
<polygon fill="none" stroke="#000000" points="1114.4442,-373.769 1114.4442,-395.769 1207.4442,-395.769 1207.4442,-373.769 1114.4442,-373.769"/>
<text text-anchor="start" x="1119.4442" y="-382.769" font-family="Times,serif" font-style="italic" text-decoration="underline" font-size="10.00" fill="#000000">eventId</text>
<text text-anchor="start" x="1149.4302" y="-382.769" font-family="Times,serif" font-size="10.00" fill="#000000">: NUMBER</text>
<polygon fill="none" stroke="#000000" points="1114.4442,-351.769 1114.4442,-373.769 1207.4442,-373.769 1207.4442,-351.769 1114.4442,-351.769"/>
<text text-anchor="start" x="1119.4442" y="-360.769" font-family="Times,serif" font-style="italic" text-decoration="underline" font-size="10.00" fill="#000000">userId</text>
<text text-anchor="start" x="1144.4302" y="-360.769" font-family="Times,serif" font-size="10.00" fill="#000000">: NUMBER</text>
<polygon fill="none" stroke="#000000" points="1114.4442,-329.769 1114.4442,-351.769 1207.4442,-351.769 1207.4442,-329.769 1114.4442,-329.769"/>
<text text-anchor="start" x="1119.4442" y="-337.769" font-family="Times,serif" font-size="10.00" fill="#000000">status: ENUM</text>
<polygon fill="none" stroke="#000000" points="1114.4442,-307.769 1114.4442,-329.769 1207.4442,-329.769 1207.4442,-307.769 1114.4442,-307.769"/>
<text text-anchor="start" x="1119.1492" y="-315.769" font-family="Times,serif" font-size="10.00" fill="#000000">bookingDate: DATE</text>
<polygon fill="none" stroke="#000000" points="1114.4442,-285.769 1114.4442,-307.769 1207.4442,-307.769 1207.4442,-285.769 1114.4442,-285.769"/>
<text text-anchor="start" x="1119.4442" y="-293.769" font-family="Times,serif" font-size="10.00" fill="#000000">createdAt: DATE</text>
<polygon fill="none" stroke="#000000" points="1114.4442,-263.769 1114.4442,-285.769 1207.4442,-285.769 1207.4442,-263.769 1114.4442,-263.769"/>
<text text-anchor="start" x="1119.4442" y="-271.769" font-family="Times,serif" font-size="10.00" fill="#000000">updatedAt: DATE</text>
</g>
<!-- Booking&#45;&gt;User -->
<g id="edge7" class="edge">
<title>Booking&#45;&gt;User</title>
<path fill="none" stroke="#000000" stroke-width=".75" d="M1213.3742,-351.769C1260.4547,-351.769 1328.9964,-351.769 1376.409,-351.769"/>
<polygon fill="#000000" stroke="#000000" stroke-width=".75" points="1213.1664,-351.7691 1207.1664,-349.069 1210.1664,-351.769 1207.1664,-351.769 1207.1664,-351.769 1207.1664,-351.769 1210.1664,-351.769 1207.1663,-354.469 1213.1664,-351.7691 1213.1664,-351.7691"/>
</g>
<!-- Booking&#45;&gt;Event -->
<g id="edge8" class="edge">
<title>Booking&#45;&gt;Event</title>
<path fill="none" stroke="#000000" stroke-width=".75" d="M1107.6046,-351.769C981.8944,-351.769 666.3655,-351.769 543.5053,-351.769"/>
<polygon fill="#000000" stroke="#000000" stroke-width=".75" points="1107.8072,-351.7691 1113.8072,-354.469 1110.8072,-351.769 1113.8072,-351.769 1113.8072,-351.769 1113.8072,-351.769 1110.8072,-351.769 1113.8071,-349.069 1107.8072,-351.7691 1107.8072,-351.7691"/>
</g>
</g>
</svg>
