<?xml version="1.0" standalone="no"?>
<!DOCTYPE svg PUBLIC "-//W3C//DTD SVG 20010904//EN"
 "http://www.w3.org/TR/2001/REC-SVG-20010904/DTD/svg10.dtd">
<svg version="1.0" xmlns="http://www.w3.org/2000/svg"
 width="461.000000pt" height="460.000000pt" viewBox="0 0 461.000000 460.000000"
 preserveAspectRatio="xMidYMid meet">

<g transform="translate(0.000000,460.000000) scale(0.100000,-0.100000)"
fill="#000000" stroke="none">
<path d="M0 4590 c0 -7 772 -10 2295 -10 l2295 0 0 -2290 c0 -1520 3 -2290 10
-2290 7 0 10 773 10 2300 l0 2300 -2305 0 c-1530 0 -2305 -3 -2305 -10z"/>
<path d="M2083 4250 c-830 -88 -1510 -664 -1722 -1461 -212 -792 82 -1627 741
-2112 300 -220 648 -347 1041 -378 422 -34 872 87 1237 332 460 309 767 792
856 1349 24 147 24 438 0 589 -133 854 -783 1515 -1634 1662 -134 23 -393 32
-519 19z m405 -665 c538 -87 970 -502 1088 -1045 26 -120 26 -410 0 -530 -135
-621 -674 -1060 -1299 -1060 -557 0 -1057 349 -1248 872 -50 135 -69 239 -76
404 -9 244 34 443 144 655 199 385 588 660 1008 712 80 10 299 5 383 -8z"/>
<path d="M2133 2940 c-121 -24 -249 -98 -346 -200 -125 -131 -187 -285 -187
-464 0 -115 20 -198 72 -306 33 -69 57 -101 127 -171 70 -70 102 -94 171 -127
108 -52 191 -72 305 -72 115 0 198 20 305 72 68 34 102 59 170 128 137 136
200 286 200 476 0 189 -62 337 -200 474 -97 98 -184 149 -306 180 -81 21 -230
26 -311 10z"/>
</g>
</svg>
